<svg xmlns="http://www.w3.org/2000/svg" version="1.2" viewBox="0 0 375 375"><defs><clipPath id="a"><path d="M12.828 193.91h11.399v11.399H12.828Zm0 0"/></clipPath><clipPath id="b"><path d="M18.527 193.91c-3.148 0-5.699 2.55-5.699 5.7 0 3.148 2.55 5.699 5.7 5.699 3.148 0 5.699-2.551 5.699-5.7 0-3.148-2.551-5.699-5.7-5.699Zm0 0"/></clipPath><clipPath id="c"><path d="M350.773 193.91h11.399v11.399h-11.399Zm0 0"/></clipPath><clipPath id="d"><path d="M356.473 193.91c-3.149 0-5.7 2.55-5.7 5.7 0 3.148 2.551 5.699 5.7 5.699 3.148 0 5.699-2.551 5.699-5.7 0-3.148-2.55-5.699-5.7-5.699Zm0 0"/></clipPath></defs><g clip-path="url(#a)"><g clip-path="url(#b)"><path d="M12.828 193.91h11.399v11.399H12.828Zm0 0" style="stroke:none;fill-rule:nonzero;fill:#000;fill-opacity:1"/></g></g><g clip-path="url(#c)"><g clip-path="url(#d)"><path d="M350.773 193.91h11.399v11.399h-11.399Zm0 0" style="stroke:none;fill-rule:nonzero;fill:#000;fill-opacity:1"/></g></g><g style="fill:#000;fill-opacity:1"><path d="M8.61 0v-1.953h5.078c5.082 0 8.632-1.07 10.656-3.219 2.02-2.156 3.031-6.234 3.031-12.234v-105.188c0-5.726-1.012-9.664-3.031-11.812-2.024-2.156-5.574-3.235-10.657-3.235H8.61v-1.953h49.844c15.77 0 27.5 2.703 35.188 8.11 7.695 5.406 11.546 13.843 11.546 25.312 0 10.043-2.84 17.574-8.515 22.594-5.668 5.012-13.649 8.172-23.938 9.484v.39c13.551.782 23.32 4.266 29.313 10.454 6 6.188 9 14.496 9 24.922 0 13.043-3.883 22.695-11.64 28.953C91.656-3.125 79.96 0 64.327 0Zm32.062-74.297h17.203c12.77 0 21.535-2.504 26.297-7.516 4.758-5.019 7.14-12.878 7.14-23.578 0-11.593-2.578-19.863-7.734-24.812-5.148-4.957-13.844-7.438-26.094-7.438H40.672Zm0 72.344h22.672c12.25 0 20.945-2.863 26.093-8.594 5.157-5.738 7.735-14.867 7.735-27.39 0-12.114-2.45-20.876-7.344-26.282-4.887-5.414-13.453-8.125-25.703-8.125H40.672Zm0 0" style="stroke:none" transform="translate(100.36 220.06)"/></g><g style="fill:#000;fill-opacity:1"><path d="M8.406 0v-1.953h5.281c5.083 0 8.633-1.07 10.657-3.219 2.02-2.156 3.031-6.234 3.031-12.234v-105.188c0-5.726-1.012-9.664-3.031-11.812-2.024-2.156-5.574-3.235-10.657-3.235h-5.28v-1.953h52.202c15.645 0 27.051 3.586 34.22 10.75 7.163 7.168 10.75 17.074 10.75 29.719 0 7.95-1.571 15.215-4.704 21.797-3.125 6.586-8.273 11.867-15.438 15.844-7.167 3.968-16.874 5.953-29.124 5.953H40.672v38.125c0 6 1.008 10.078 3.031 12.234 2.02 2.149 5.57 3.219 10.656 3.219h6.844V0Zm32.266-57.484H55.14c13.687 0 23.203-3.614 28.547-10.844 5.343-7.238 8.015-17.375 8.015-30.406 0-13.426-2.543-23.266-7.625-29.516-5.086-6.258-13.496-9.39-25.234-9.39H40.672Zm0 0" style="stroke:none" transform="translate(147.103 303.528)"/></g></svg>